<mxfile host="65bd71144e" scale="1" border="20">
    <diagram id="AFgXOucx34r3HNnIfY57" name="Page-1">
        <mxGraphModel dx="1887" dy="769" grid="1" gridSize="10" guides="1" tooltips="1" connect="1" arrows="1" fold="1" page="1" pageScale="1" pageWidth="827" pageHeight="1169" background="#ffffff" math="0" shadow="0">
            <root>
                <mxCell id="0"/>
                <mxCell id="1" parent="0"/>
                <mxCell id="61" value="" style="rounded=0;whiteSpace=wrap;html=1;fontSize=12;" vertex="1" parent="1">
                    <mxGeometry x="-210" y="150" width="300" height="840" as="geometry"/>
                </mxCell>
                <mxCell id="62" value="" style="rounded=0;whiteSpace=wrap;html=1;fontSize=12;" vertex="1" parent="1">
                    <mxGeometry x="80" y="110" width="310" height="880" as="geometry"/>
                </mxCell>
                <mxCell id="2" value="Archivage d'un suivi en lien avec une sonde" style="rounded=0;whiteSpace=wrap;html=1;fontSize=16;" parent="1" vertex="1">
                    <mxGeometry x="-210" y="100" width="600" height="50" as="geometry"/>
                </mxCell>
                <mxCell id="5" value="Utilisateur inscrit" style="text;html=1;strokeColor=none;fillColor=none;align=center;verticalAlign=middle;whiteSpace=wrap;rounded=0;fontSize=16;" parent="1" vertex="1">
                    <mxGeometry x="-198.19" y="160" width="257.5" height="30" as="geometry"/>
                </mxCell>
                <mxCell id="6" value="Système" style="text;html=1;strokeColor=none;fillColor=none;align=center;verticalAlign=middle;whiteSpace=wrap;rounded=0;fontSize=16;" parent="1" vertex="1">
                    <mxGeometry x="152.5" y="160" width="165" height="30" as="geometry"/>
                </mxCell>
                <mxCell id="8" value="" style="ellipse;html=1;shape=startState;fillColor=#000000;strokeColor=#ff0000;fontSize=16;" parent="1" vertex="1">
                    <mxGeometry x="-84.44" y="250" width="30" height="30" as="geometry"/>
                </mxCell>
                <mxCell id="9" value="" style="edgeStyle=orthogonalEdgeStyle;html=1;verticalAlign=bottom;endArrow=open;endSize=8;strokeColor=#ff0000;fontSize=16;entryX=0.5;entryY=0;entryDx=0;entryDy=0;" parent="1" source="8" target="10" edge="1">
                    <mxGeometry relative="1" as="geometry">
                        <mxPoint x="-69.44" y="300" as="targetPoint"/>
                    </mxGeometry>
                </mxCell>
                <mxCell id="10" value="&lt;font style=&quot;font-size: 12px;&quot;&gt;sélectionne une sonde&lt;/font&gt;" style="rounded=1;whiteSpace=wrap;html=1;arcSize=40;fontColor=#000000;fillColor=#ffffc0;strokeColor=#ff0000;fontSize=16;" parent="1" vertex="1">
                    <mxGeometry x="-140.06" y="310" width="141.25" height="40" as="geometry"/>
                </mxCell>
                <mxCell id="11" value="" style="edgeStyle=orthogonalEdgeStyle;html=1;verticalAlign=bottom;endArrow=open;endSize=8;strokeColor=#ff0000;fontSize=16;exitX=0.5;exitY=1;exitDx=0;exitDy=0;entryX=0.5;entryY=0;entryDx=0;entryDy=0;" parent="1" source="10" target="49" edge="1">
                    <mxGeometry relative="1" as="geometry">
                        <mxPoint x="-70" y="380" as="targetPoint"/>
                        <mxPoint x="-79.9600000000001" y="470" as="sourcePoint"/>
                        <Array as="points"/>
                    </mxGeometry>
                </mxCell>
                <mxCell id="30" style="edgeStyle=orthogonalEdgeStyle;html=1;strokeColor=#f40101;fontSize=12;endArrow=open;endFill=0;entryX=0.5;entryY=0;entryDx=0;entryDy=0;" parent="1" source="21" target="40" edge="1">
                    <mxGeometry relative="1" as="geometry">
                        <mxPoint x="152" y="730" as="targetPoint"/>
                        <Array as="points">
                            <mxPoint x="-69" y="620"/>
                        </Array>
                    </mxGeometry>
                </mxCell>
                <mxCell id="21" value="Demande confirmation à l'utilisateur" style="rounded=1;whiteSpace=wrap;html=1;arcSize=40;fontColor=#000000;fillColor=#ffffc0;strokeColor=#ff0000;fontSize=12;" parent="1" vertex="1">
                    <mxGeometry x="105" y="600" width="120" height="40" as="geometry"/>
                </mxCell>
                <mxCell id="33" value="Ajoute une date de fin au suivi" style="rounded=1;whiteSpace=wrap;html=1;arcSize=40;fontColor=#000000;fillColor=#ffffc0;strokeColor=#ff0000;fontSize=12;" parent="1" vertex="1">
                    <mxGeometry x="129.06" y="730" width="131" height="50" as="geometry"/>
                </mxCell>
                <mxCell id="34" value="" style="edgeStyle=orthogonalEdgeStyle;html=1;verticalAlign=bottom;endArrow=open;endSize=8;strokeColor=#ff0000;fontSize=12;entryX=0.5;entryY=0;entryDx=0;entryDy=0;" parent="1" source="33" target="45" edge="1">
                    <mxGeometry relative="1" as="geometry">
                        <mxPoint x="195" y="1020" as="targetPoint"/>
                    </mxGeometry>
                </mxCell>
                <mxCell id="37" value="END" style="text;html=1;strokeColor=none;fillColor=none;align=center;verticalAlign=middle;whiteSpace=wrap;rounded=0;fontSize=12;" parent="1" vertex="1">
                    <mxGeometry x="165" y="950" width="60" height="30" as="geometry"/>
                </mxCell>
                <mxCell id="38" value="START" style="text;html=1;strokeColor=none;fillColor=none;align=center;verticalAlign=middle;whiteSpace=wrap;rounded=0;fontSize=12;" parent="1" vertex="1">
                    <mxGeometry x="-99" y="220" width="60" height="30" as="geometry"/>
                </mxCell>
                <mxCell id="40" value="Confirme l'archivage" style="rounded=1;whiteSpace=wrap;html=1;arcSize=40;fontColor=#000000;fillColor=#ffffc0;strokeColor=#ff0000;" parent="1" vertex="1">
                    <mxGeometry x="-129" y="640" width="120" height="40" as="geometry"/>
                </mxCell>
                <mxCell id="41" value="" style="edgeStyle=orthogonalEdgeStyle;html=1;verticalAlign=bottom;endArrow=open;endSize=8;strokeColor=#ff0000;entryX=0;entryY=0.5;entryDx=0;entryDy=0;" parent="1" source="40" target="33" edge="1">
                    <mxGeometry relative="1" as="geometry">
                        <mxPoint x="-69" y="730" as="targetPoint"/>
                        <Array as="points">
                            <mxPoint x="-70" y="755"/>
                        </Array>
                    </mxGeometry>
                </mxCell>
                <mxCell id="45" value="Confirme l'archivage du suivi" style="rounded=1;whiteSpace=wrap;html=1;arcSize=40;fontColor=#000000;fillColor=#ffffc0;strokeColor=#ff0000;" parent="1" vertex="1">
                    <mxGeometry x="122.06" y="820" width="145" height="70" as="geometry"/>
                </mxCell>
                <mxCell id="47" value="" style="edgeStyle=orthogonalEdgeStyle;html=1;verticalAlign=bottom;endArrow=open;endSize=8;strokeColor=#ff0000;startArrow=none;startFill=0;endFill=0;" parent="1" source="45" target="7" edge="1">
                    <mxGeometry relative="1" as="geometry">
                        <mxPoint x="195" y="1030" as="targetPoint"/>
                        <mxPoint x="195" y="980" as="sourcePoint"/>
                        <Array as="points"/>
                    </mxGeometry>
                </mxCell>
                <mxCell id="7" value="" style="ellipse;html=1;shape=endState;fillColor=#000000;strokeColor=#ff0000;fontSize=16;" parent="1" vertex="1">
                    <mxGeometry x="180" y="920" width="30" height="30" as="geometry"/>
                </mxCell>
                <mxCell id="49" value="demande l'archivage du suivi en cours" style="rounded=1;whiteSpace=wrap;html=1;arcSize=40;fontColor=#000000;fillColor=#ffffc0;strokeColor=#ff0000;" parent="1" vertex="1">
                    <mxGeometry x="-129" y="380" width="120" height="40" as="geometry"/>
                </mxCell>
                <mxCell id="50" value="" style="edgeStyle=orthogonalEdgeStyle;html=1;verticalAlign=bottom;endArrow=open;endSize=8;strokeColor=#ff0000;entryX=0.022;entryY=0.5;entryDx=0;entryDy=0;entryPerimeter=0;" parent="1" source="49" target="51" edge="1">
                    <mxGeometry relative="1" as="geometry">
                        <mxPoint x="-69" y="480" as="targetPoint"/>
                        <Array as="points">
                            <mxPoint x="100" y="400"/>
                            <mxPoint x="100" y="400"/>
                        </Array>
                    </mxGeometry>
                </mxCell>
                <mxCell id="51" value="Vérifie qu'un suivi est en cours sur la sonde" style="rounded=1;whiteSpace=wrap;html=1;arcSize=40;fontColor=#000000;fillColor=#ffffc0;strokeColor=#ff0000;" parent="1" vertex="1">
                    <mxGeometry x="107" y="375" width="115" height="50" as="geometry"/>
                </mxCell>
                <mxCell id="52" value="" style="edgeStyle=orthogonalEdgeStyle;html=1;verticalAlign=bottom;endArrow=open;endSize=8;strokeColor=#ff0000;entryX=0.5;entryY=0;entryDx=0;entryDy=0;" parent="1" source="51" target="53" edge="1">
                    <mxGeometry relative="1" as="geometry">
                        <mxPoint x="195" y="480" as="targetPoint"/>
                    </mxGeometry>
                </mxCell>
                <mxCell id="53" value="" style="rhombus;whiteSpace=wrap;html=1;fillColor=#ffffc0;strokeColor=#ff0000;" parent="1" vertex="1">
                    <mxGeometry x="142" y="485" width="45" height="40" as="geometry"/>
                </mxCell>
                <mxCell id="54" value="non" style="edgeStyle=orthogonalEdgeStyle;html=1;align=left;verticalAlign=bottom;endArrow=open;endSize=8;strokeColor=#ff0000;entryX=0;entryY=0.5;entryDx=0;entryDy=0;" parent="1" source="53" target="56" edge="1">
                    <mxGeometry x="-1" relative="1" as="geometry">
                        <mxPoint x="335" y="505" as="targetPoint"/>
                        <mxPoint as="offset"/>
                    </mxGeometry>
                </mxCell>
                <mxCell id="55" value="oui" style="edgeStyle=orthogonalEdgeStyle;html=1;align=left;verticalAlign=top;endArrow=open;endSize=8;strokeColor=#ff0000;entryX=0.5;entryY=0;entryDx=0;entryDy=0;" parent="1" source="53" target="21" edge="1">
                    <mxGeometry relative="1" as="geometry">
                        <mxPoint x="152" y="600" as="targetPoint"/>
                    </mxGeometry>
                </mxCell>
                <mxCell id="56" value="Notifie l'utilisateur qu'il n'y a aucun suivi en cours" style="rounded=1;whiteSpace=wrap;html=1;arcSize=40;fontColor=#000000;fillColor=#ffffc0;strokeColor=#ff0000;" parent="1" vertex="1">
                    <mxGeometry x="240" y="477.5" width="129.94" height="55" as="geometry"/>
                </mxCell>
                <mxCell id="57" value="" style="edgeStyle=orthogonalEdgeStyle;html=1;verticalAlign=bottom;endArrow=open;endSize=8;strokeColor=#ff0000;entryX=0.5;entryY=0;entryDx=0;entryDy=0;" parent="1" source="56" target="59" edge="1">
                    <mxGeometry relative="1" as="geometry">
                        <mxPoint x="304.94" y="570" as="targetPoint"/>
                    </mxGeometry>
                </mxCell>
                <mxCell id="58" value="END" style="text;html=1;strokeColor=none;fillColor=none;align=center;verticalAlign=middle;whiteSpace=wrap;rounded=0;fontSize=12;" parent="1" vertex="1">
                    <mxGeometry x="274.96999999999997" y="610" width="60" height="30" as="geometry"/>
                </mxCell>
                <mxCell id="59" value="" style="ellipse;html=1;shape=endState;fillColor=#000000;strokeColor=#ff0000;fontSize=16;" parent="1" vertex="1">
                    <mxGeometry x="289.96999999999997" y="580" width="30" height="30" as="geometry"/>
                </mxCell>
            </root>
        </mxGraphModel>
    </diagram>
</mxfile>